<?xml version="1.0" standalone="no"?>
<!DOCTYPE svg PUBLIC "-//W3C//DTD SVG 20010904//EN"
 "http://www.w3.org/TR/2001/REC-SVG-20010904/DTD/svg10.dtd">
<svg version="1.0" xmlns="http://www.w3.org/2000/svg"
 width="640.000000pt" height="640.000000pt" viewBox="0 0 640.000000 640.000000"
 preserveAspectRatio="xMidYMid meet">
<metadata>
Created by potrace 1.14, written by Peter Selinger 2001-2017
</metadata>
<g transform="translate(0.000000,640.000000) scale(0.100000,-0.100000)"
fill="#000000" stroke="none">
<path d="M0 3200 l0 -3200 3200 0 3200 0 0 3200 0 3200 -3200 0 -3200 0 0
-3200z m2535 658 c366 -365 670 -664 677 -666 7 -1 303 288 658 642 607 608
645 644 662 629 10 -9 18 -21 18 -27 0 -13 -1323 -1336 -1336 -1336 -5 0 -295
286 -644 635 -349 349 -638 635 -642 635 -5 0 -8 -484 -8 -1075 l0 -1075 -30
0 -30 0 0 1150 c0 633 2 1150 5 1150 3 0 305 -298 670 -662z m2033 -780 l-3
-853 -27 -3 -28 -3 0 779 c0 428 -3 781 -6 785 -3 3 -289 -276 -635 -621 -346
-345 -634 -627 -640 -627 -7 0 -17 8 -23 18 -9 15 81 109 669 697 374 374 683
680 688 680 4 0 6 -384 5 -852z m-1590 -840 l2 -178 -37 1 c-21 0 -54 -3 -73
-6 -95 -18 -146 139 -73 225 20 25 32 30 67 30 23 0 47 -5 54 -12 9 -9 12 1
12 48 0 65 5 76 30 72 13 -3 15 -30 18 -180z m-791 59 c23 -56 48 -118 56
-137 l14 -35 12 25 c6 14 31 75 55 135 41 105 45 110 72 110 l29 0 3 -167 2
-168 -26 0 -26 0 4 120 c1 66 0 120 -3 120 -3 0 -27 -54 -53 -121 -63 -157
-71 -157 -133 -4 -25 61 -49 115 -55 120 -6 6 -8 -33 -7 -110 1 -115 1 -120
-20 -123 -21 -3 -21 -1 -21 167 l0 171 28 0 c25 0 30 -8 69 -103z m494 -15
c27 -24 33 -37 37 -84 5 -66 -14 -110 -58 -133 -106 -55 -206 59 -156 179 30
71 119 90 177 38z m521 17 c23 -12 48 -66 48 -104 0 -25 -1 -25 -85 -25 -53 0
-85 -4 -85 -11 0 -15 21 -53 34 -61 18 -13 70 -8 90 7 21 16 36 12 36 -9 0
-16 -59 -46 -90 -46 -45 0 -88 30 -105 73 -36 90 14 187 96 187 22 0 49 -5 61
-11z"/>
<path d="M2835 2255 c-49 -48 -26 -165 31 -165 54 0 64 15 64 90 0 60 -3 71
-22 84 -31 22 -45 20 -73 -9z"/>
<path d="M2568 2260 c-29 -22 -39 -69 -26 -117 17 -62 86 -73 119 -20 27 43
20 103 -16 134 -32 28 -45 29 -77 3z"/>
<path d="M3104 2255 c-23 -23 -29 -48 -11 -46 4 1 30 1 57 1 43 0 50 3 50 19
0 21 -35 51 -58 51 -7 0 -24 -11 -38 -25z"/>
</g>
</svg>
